<svg width="133" height="72" viewBox="0 0 133 72" fill="none" xmlns="http://www.w3.org/2000/svg">
<path d="M0.477051 58.7957V45.5142H2.97529V58.7957H0.477051ZM8.23817 45.5142H9.67229L5.24857 51.2122L10.1015 58.7957H7.29689L3.03745 52.1142L8.23817 45.5142Z" fill="#606060"/>
<path d="M18.4768 58.7957V45.5142H26.3208V46.3747H20.9751V51.4981H26.013V52.3586H20.9751V57.9337H26.4022V58.7942H18.4768V58.7957Z" fill="#606060"/>
<path d="M36.2516 58.7957V45.5142H38.7499V57.75H44.0749V58.7957H36.2516Z" fill="#606060"/>
<path d="M62.6282 58.7957H60.0678L58.6544 55.3313H54.0871L52.7566 58.7957H51.5888L56.9953 45.1454H57.0367L62.6282 58.7957ZM56.3618 49.5933L54.4364 54.4707H58.3066L56.3618 49.5933Z" fill="#606060"/>
<path d="M71.5969 58.7957V45.5142H77.3304C79.7473 45.5142 81.0985 47.2975 81.0985 49.4289C81.0985 51.4581 79.6244 52.3394 77.6368 52.5852L81.1592 58.7957H78.4167L74.7922 51.9913H74.9565C77.1676 51.9913 78.6017 51.1307 78.6017 49.143C78.6017 47.6678 77.8854 46.1718 75.4479 46.1718H74.0966V58.7972H71.5969V58.7957Z" fill="#606060"/>
<path d="M90.5395 58.7957V45.5142H93.0377V58.7957H90.5395Z" fill="#606060"/>
<path d="M103.42 45.5142H107.741C112.534 45.5142 114.807 48.9164 114.807 52.4001C114.807 56.6421 112.084 58.7942 108.212 58.7942H103.42V45.5142V45.5142ZM105.918 57.9337H107.475C111.468 57.9337 112.309 55.0439 112.309 52.4416C112.309 49.1001 110.752 46.3747 107.598 46.3747H105.918V57.9337V57.9337Z" fill="#606060"/>
<path d="M124.246 58.7957V45.5142H126.745V58.7957H124.246Z" fill="#606060"/>
<path d="M13.06 64.827H14.5444C14.7235 64.827 14.9115 64.8477 15.1083 64.8892C15.3052 64.9307 15.4842 65.0018 15.647 65.104C15.8098 65.2062 15.943 65.3454 16.0466 65.5231C16.1502 65.7009 16.2035 65.923 16.2035 66.1896C16.2035 66.4222 16.1606 66.6236 16.0762 66.794C15.9919 66.9643 15.8779 67.1035 15.7344 67.2131C15.5908 67.3227 15.4265 67.4042 15.2386 67.4575C15.0521 67.5108 14.8567 67.5375 14.6525 67.5375H13.5395V69.9844H13.06V64.827ZM13.5395 67.0991H14.6318C14.7679 67.0991 14.9011 67.0828 15.0328 67.0517C15.1646 67.0206 15.28 66.9687 15.3821 66.8991C15.4842 66.8295 15.5656 66.7362 15.6293 66.6192C15.6929 66.5022 15.724 66.36 15.724 66.1896C15.724 66.0252 15.6914 65.8845 15.6263 65.7675C15.5612 65.652 15.4754 65.5557 15.3718 65.4802C15.2667 65.4046 15.1468 65.3498 15.0106 65.3158C14.8745 65.2817 14.7383 65.2654 14.6036 65.2654H13.541V67.0991H13.5395Z" fill="#606060"/>
<path d="M17.1196 69.1238C17.2114 69.303 17.3475 69.4408 17.5266 69.5356C17.7057 69.6304 17.8951 69.6778 18.0949 69.6778C18.1867 69.6778 18.2784 69.6629 18.3717 69.6333C18.4634 69.6037 18.5463 69.5637 18.6188 69.5089C18.6914 69.4556 18.7506 69.3919 18.7964 69.3164C18.8423 69.2408 18.866 69.1549 18.866 69.0571C18.866 68.9016 18.8157 68.7861 18.7165 68.7076C18.6174 68.6306 18.4945 68.5684 18.3495 68.5254C18.2044 68.4825 18.0446 68.444 17.8685 68.4129C17.6938 68.3817 17.534 68.3329 17.3875 68.2677C17.2424 68.2025 17.1196 68.1107 17.0204 67.9952C16.9213 67.8796 16.871 67.7137 16.871 67.5005C16.871 67.3346 16.905 67.1924 16.9731 67.0709C17.0412 66.9495 17.13 66.8488 17.238 66.7688C17.3475 66.6888 17.4689 66.6295 17.605 66.591C17.7412 66.5525 17.8788 66.5318 18.0194 66.5318C18.2962 66.5318 18.5345 66.5836 18.7358 66.6858C18.937 66.788 19.0939 66.948 19.2049 67.1672L18.8112 67.3997C18.7284 67.2442 18.6262 67.1272 18.5019 67.0457C18.3791 66.9658 18.2178 66.9258 18.018 66.9258C17.941 66.9258 17.8596 66.9376 17.7738 66.9613C17.6894 66.9865 17.6124 67.0206 17.5444 67.0635C17.4763 67.1065 17.42 67.1628 17.3727 67.2309C17.3268 67.299 17.3031 67.376 17.3031 67.4634C17.3031 67.6145 17.352 67.7256 17.4526 67.7982C17.5518 67.8707 17.6746 67.9285 17.8211 67.9685C17.9662 68.01 18.126 68.0455 18.3021 68.0751C18.4768 68.1048 18.6366 68.1522 18.7831 68.2173C18.9282 68.2825 19.051 68.3773 19.1502 68.5017C19.2493 68.6261 19.2996 68.8009 19.2996 69.0305C19.2996 69.2053 19.2671 69.3563 19.202 69.4852C19.1368 69.6141 19.0466 69.7222 18.9326 69.8096C18.8186 69.897 18.6884 69.9621 18.5434 70.0066C18.3983 70.051 18.2444 70.0717 18.0846 70.0717C17.793 70.0717 17.5281 70.0155 17.2883 69.9044C17.0486 69.7918 16.8621 69.62 16.7318 69.3874L17.1196 69.1238Z" fill="#606060"/>
<path d="M21.16 71.0241C21.0771 71.2433 20.9632 71.4152 20.8181 71.5411C20.6731 71.667 20.4792 71.7306 20.2365 71.7306C20.164 71.7306 20.0915 71.7247 20.0189 71.7129C19.9464 71.701 19.8754 71.6847 19.8073 71.6655L19.8502 71.2567C19.9139 71.2759 19.9775 71.2952 20.0426 71.3115C20.1077 71.3278 20.1743 71.3367 20.2424 71.3367C20.3194 71.3367 20.3889 71.3189 20.4496 71.2863C20.5103 71.2522 20.5621 71.2078 20.6065 71.1545C20.6509 71.1012 20.6879 71.0419 20.719 70.9767C20.7501 70.9116 20.7782 70.8449 20.8033 70.7768L21.1082 69.9977L19.7407 66.6177H20.2276L21.3406 69.4511L22.4254 66.6177H22.8916L21.16 71.0241Z" fill="#606060"/>
<path d="M26.3992 69.4882C26.2349 69.6866 26.0469 69.8348 25.8383 69.9295C25.6296 70.0243 25.4031 70.0717 25.1619 70.0717C24.9044 70.0717 24.6676 70.0288 24.4485 69.9414C24.2295 69.854 24.043 69.7311 23.8876 69.5741C23.7322 69.4171 23.6109 69.229 23.5235 69.0127C23.4362 68.7965 23.3933 68.5595 23.3933 68.3018C23.3933 68.044 23.4377 67.8085 23.5235 67.5923C23.6109 67.376 23.7322 67.1894 23.8876 67.0309C24.043 66.8739 24.2295 66.751 24.4485 66.6636C24.6661 66.5762 24.9044 66.5318 25.1619 66.5318C25.4091 66.5318 25.6385 66.5836 25.8501 66.6858C26.0603 66.788 26.2497 66.9302 26.414 67.1154L26.0647 67.3775C25.9389 67.2368 25.7998 67.1257 25.6503 67.0457C25.4994 66.9658 25.338 66.9258 25.1619 66.9258C24.9577 66.9258 24.7741 66.9613 24.6084 67.0354C24.4441 67.108 24.3035 67.2072 24.1866 67.3301C24.0697 67.4531 23.9823 67.5997 23.9217 67.7671C23.861 67.9344 23.8314 68.1137 23.8314 68.3018C23.8314 68.4914 23.861 68.6706 23.9217 68.8379C23.9823 69.0053 24.0711 69.1505 24.1866 69.2749C24.3035 69.3993 24.4441 69.4971 24.6084 69.5696C24.7727 69.6422 24.9577 69.6792 25.1619 69.6792C25.3469 69.6792 25.5141 69.6363 25.6681 69.5519C25.822 69.4674 25.9522 69.3534 26.0647 69.2127L26.3992 69.4882Z" fill="#606060"/>
<path d="M27.083 64.4774H27.5196V67.2087H27.5344C27.6217 67.025 27.7668 66.8651 27.971 66.7317C28.1752 66.5984 28.412 66.5318 28.6844 66.5318C28.9463 66.5318 29.1594 66.5733 29.3252 66.6562C29.4895 66.7392 29.6197 66.8473 29.7144 66.9806C29.8092 67.1139 29.8743 67.2679 29.9113 67.4427C29.9483 67.6175 29.966 67.7982 29.966 67.9818V69.9844H29.5294V68.0041C29.5294 67.8678 29.5176 67.736 29.4924 67.6071C29.4688 67.4783 29.4258 67.3627 29.3652 67.2605C29.3045 67.1583 29.2201 67.0769 29.1106 67.0176C29.0011 66.9569 28.8605 66.9258 28.6844 66.9258C28.5245 66.9258 28.3721 66.9539 28.23 67.0087C28.0864 67.065 27.9636 67.1494 27.8585 67.2635C27.7549 67.3775 27.672 67.5212 27.6114 67.693C27.5507 67.8648 27.5211 68.0677 27.5211 68.3018V69.9844H27.0845V64.4774H27.083Z" fill="#606060"/>
<path d="M30.9398 68.3003C30.9398 68.0426 30.9842 67.8071 31.0701 67.5908C31.1574 67.3746 31.2787 67.1879 31.4341 67.0295C31.5895 66.8724 31.776 66.7495 31.9951 66.6621C32.2126 66.5747 32.4509 66.5303 32.7084 66.5303C32.9659 66.5303 33.2027 66.5747 33.4173 66.6621C33.6334 66.7495 33.8199 66.8724 33.9783 67.0295C34.1351 67.1879 34.258 67.3746 34.3453 67.5908C34.4326 67.8071 34.4755 68.044 34.4755 68.3003C34.4755 68.558 34.4326 68.795 34.3453 69.0112C34.258 69.2275 34.1351 69.4141 33.9783 69.5726C33.8199 69.7296 33.6334 69.8525 33.4173 69.9399C33.2013 70.0273 32.9645 70.0703 32.7084 70.0703C32.4509 70.0703 32.2141 70.0273 31.9951 69.9399C31.776 69.8525 31.5895 69.7296 31.4341 69.5726C31.2787 69.4156 31.1574 69.2275 31.0701 69.0112C30.9842 68.795 30.9398 68.558 30.9398 68.3003ZM31.3764 68.3003C31.3764 68.4899 31.406 68.6691 31.4667 68.8365C31.5274 69.0038 31.6162 69.149 31.7316 69.2734C31.8485 69.3978 31.9891 69.4956 32.1534 69.5682C32.3177 69.6407 32.5027 69.6778 32.7069 69.6778C32.9112 69.6778 33.0947 69.6407 33.2605 69.5682C33.4247 69.4956 33.5653 69.3963 33.6823 69.2734C33.7992 69.149 33.8865 69.0038 33.9472 68.8365C34.0079 68.6691 34.0375 68.4899 34.0375 68.3003C34.0375 68.1107 34.0079 67.933 33.9472 67.7656C33.8865 67.5982 33.7977 67.4531 33.6823 67.3286C33.5653 67.2042 33.4247 67.1065 33.2605 67.0339C33.0962 66.9613 32.9112 66.9243 32.7069 66.9243C32.5027 66.9243 32.3192 66.9598 32.1534 67.0339C31.9891 67.1065 31.8485 67.2057 31.7316 67.3286C31.6147 67.4516 31.5274 67.5982 31.4667 67.7656C31.4075 67.933 31.3764 68.1107 31.3764 68.3003Z" fill="#606060"/>
<path d="M35.5249 64.4774H35.9615V69.9844H35.5249V64.4774Z" fill="#606060"/>
<path d="M37.0093 68.3003C37.0093 68.0426 37.0537 67.8071 37.1395 67.5908C37.2269 67.3746 37.3482 67.1879 37.5036 67.0295C37.659 66.8724 37.8455 66.7495 38.0645 66.6621C38.2821 66.5747 38.5204 66.5303 38.7779 66.5303C39.0354 66.5303 39.2722 66.5747 39.4868 66.6621C39.7029 66.7495 39.8894 66.8724 40.0477 67.0295C40.2046 67.1879 40.3275 67.3746 40.4148 67.5908C40.5021 67.8071 40.545 68.044 40.545 68.3003C40.545 68.558 40.5021 68.795 40.4148 69.0112C40.3275 69.2275 40.2046 69.4141 40.0477 69.5726C39.8894 69.7296 39.7029 69.8525 39.4868 69.9399C39.2707 70.0273 39.0339 70.0703 38.7779 70.0703C38.5204 70.0703 38.2836 70.0273 38.0645 69.9399C37.8455 69.8525 37.659 69.7296 37.5036 69.5726C37.3482 69.4156 37.2269 69.2275 37.1395 69.0112C37.0537 68.795 37.0093 68.558 37.0093 68.3003ZM37.4459 68.3003C37.4459 68.4899 37.4755 68.6691 37.5362 68.8365C37.5969 69.0038 37.6857 69.149 37.8011 69.2734C37.918 69.3978 38.0586 69.4956 38.2229 69.5682C38.3872 69.6407 38.5722 69.6778 38.7764 69.6778C38.9807 69.6778 39.1642 69.6407 39.3299 69.5682C39.4942 69.4956 39.6348 69.3963 39.7517 69.2734C39.8687 69.149 39.956 69.0038 40.0167 68.8365C40.0773 68.6691 40.1069 68.4899 40.1069 68.3003C40.1069 68.1107 40.0773 67.933 40.0167 67.7656C39.956 67.5982 39.8672 67.4531 39.7517 67.3286C39.6363 67.2042 39.4942 67.1065 39.3299 67.0339C39.1657 66.9613 38.9807 66.9243 38.7764 66.9243C38.5722 66.9243 38.3887 66.9598 38.2229 67.0339C38.0586 67.1065 37.918 67.2057 37.8011 67.3286C37.6842 67.4531 37.5969 67.5982 37.5362 67.7656C37.477 67.933 37.4459 68.1107 37.4459 68.3003Z" fill="#606060"/>
<path d="M44.8977 69.7637C44.8977 70.1814 44.837 70.5191 44.7157 70.7753C44.5943 71.033 44.4433 71.2315 44.2613 71.3722C44.0793 71.5129 43.8839 71.6077 43.6752 71.6566C43.4665 71.7055 43.2771 71.7292 43.1069 71.7292C42.9367 71.7292 42.7709 71.7129 42.6081 71.6818C42.4453 71.6507 42.2914 71.6047 42.1464 71.544C42.0013 71.4833 41.8681 71.4092 41.7497 71.3218C41.6313 71.2345 41.5277 71.1352 41.4404 71.0227L41.7823 70.7027C41.9377 70.9205 42.1316 71.0804 42.3639 71.1841C42.5963 71.2863 42.8449 71.3367 43.1069 71.3367C43.3304 71.3367 43.5183 71.307 43.6708 71.2493C43.8232 71.1915 43.949 71.1145 44.0497 71.0197C44.1488 70.9249 44.2273 70.8212 44.282 70.7072C44.3383 70.5931 44.3782 70.4791 44.4049 70.365C44.4315 70.251 44.4478 70.1428 44.4522 70.0406C44.4567 69.9384 44.4596 69.857 44.4596 69.7933V69.3267H44.4448C44.319 69.5311 44.1473 69.6911 43.9313 69.8081C43.7152 69.9251 43.4621 69.9829 43.1705 69.9829C42.9234 69.9829 42.6895 69.9384 42.472 69.8481C42.2529 69.7577 42.0635 69.6348 41.9007 69.4763C41.7379 69.3193 41.6091 69.1357 41.5144 68.9268C41.4197 68.718 41.3723 68.4943 41.3723 68.2573C41.3723 68.0189 41.4197 67.7967 41.5144 67.5864C41.6091 67.3775 41.7379 67.1953 41.9007 67.0398C42.0635 66.8843 42.2529 66.7614 42.472 66.668C42.6895 66.5762 42.9234 66.5288 43.1705 66.5288C43.4621 66.5288 43.7152 66.5881 43.9313 66.7036C44.1473 66.8206 44.3175 66.9806 44.4448 67.185H44.4596V66.6177H44.8962V69.7637H44.8977ZM44.4759 68.2573C44.4759 68.0737 44.4404 67.8989 44.3708 67.736C44.2998 67.573 44.2051 67.4323 44.0867 67.3138C43.9683 67.1953 43.8277 67.1005 43.6649 67.0295C43.5021 66.9598 43.3289 66.9243 43.1439 66.9243C42.9589 66.9243 42.7857 66.9598 42.6229 67.0295C42.4601 67.1005 42.3195 67.1953 42.2011 67.3138C42.0827 67.4323 41.988 67.5745 41.917 67.736C41.8474 67.8989 41.8119 68.0722 41.8119 68.2573C41.8119 68.4425 41.8474 68.6158 41.917 68.7772C41.988 68.9401 42.0813 69.0809 42.2011 69.1993C42.3195 69.3178 42.4601 69.4126 42.6229 69.4837C42.7857 69.5548 42.9589 69.5889 43.1439 69.5889C43.3274 69.5889 43.5021 69.5533 43.6649 69.4837C43.8277 69.4141 43.9683 69.3193 44.0867 69.1993C44.2051 69.0809 44.2998 68.9401 44.3708 68.7772C44.4404 68.6158 44.4759 68.441 44.4759 68.2573Z" fill="#606060"/>
<path d="M45.9323 65.2847C45.9323 65.1928 45.9634 65.1158 46.027 65.0521C46.0892 64.9899 46.1676 64.9573 46.2594 64.9573C46.3511 64.9573 46.4296 64.9899 46.4917 65.0521C46.5539 65.1158 46.5864 65.1928 46.5864 65.2847C46.5864 65.3765 46.5554 65.455 46.4917 65.5172C46.4281 65.5809 46.3511 65.612 46.2594 65.612C46.1676 65.612 46.0892 65.5809 46.027 65.5172C45.9634 65.455 45.9323 65.378 45.9323 65.2847ZM46.0403 66.6177H46.4769V69.9829H46.0403V66.6177Z" fill="#606060"/>
<path d="M47.7216 69.1238C47.8134 69.303 47.9495 69.4408 48.1286 69.5356C48.3077 69.6304 48.4971 69.6778 48.6969 69.6778C48.7887 69.6778 48.8805 69.6629 48.9737 69.6333C49.0655 69.6037 49.1483 69.5637 49.2209 69.5089C49.2934 69.4556 49.3526 69.3919 49.3985 69.3164C49.4443 69.2408 49.468 69.1549 49.468 69.0571C49.468 68.9016 49.4177 68.7861 49.3185 68.7076C49.2194 68.6306 49.0965 68.5684 48.9515 68.5254C48.8065 68.4825 48.6466 68.444 48.4705 68.4129C48.2959 68.3817 48.136 68.3329 47.9895 68.2677C47.8445 68.2025 47.7216 68.1107 47.6225 67.9952C47.5233 67.8796 47.473 67.7137 47.473 67.5005C47.473 67.3346 47.507 67.1924 47.5751 67.0709C47.6432 66.9495 47.732 66.8488 47.84 66.7688C47.9495 66.6888 48.0709 66.6295 48.2071 66.591C48.3432 66.5525 48.4809 66.5318 48.6215 66.5318C48.8982 66.5318 49.1365 66.5836 49.3378 66.6858C49.5391 66.788 49.6959 66.948 49.8069 67.1672L49.4133 67.3997C49.3304 67.2442 49.2283 67.1272 49.1039 67.0457C48.9811 66.9658 48.8198 66.9258 48.62 66.9258C48.543 66.9258 48.4616 66.9376 48.3758 66.9613C48.2914 66.9865 48.2145 67.0206 48.1464 67.0635C48.0783 67.1065 48.0221 67.1628 47.9747 67.2309C47.9288 67.299 47.9051 67.376 47.9051 67.4634C47.9051 67.6145 47.954 67.7256 48.0546 67.7982C48.1538 67.8707 48.2766 67.9285 48.4231 67.9685C48.5682 68.01 48.728 68.0455 48.9041 68.0751C49.0788 68.1048 49.2386 68.1522 49.3851 68.2173C49.5302 68.2825 49.653 68.3773 49.7522 68.5017C49.8513 68.6261 49.9017 68.8009 49.9017 69.0305C49.9017 69.2053 49.8691 69.3563 49.804 69.4852C49.7389 69.6141 49.6486 69.7222 49.5346 69.8096C49.4207 69.897 49.2904 69.9621 49.1454 70.0066C49.0003 70.051 48.8464 70.0717 48.6866 70.0717C48.395 70.0717 48.1301 70.0155 47.8903 69.9044C47.6506 69.7918 47.4641 69.62 47.3339 69.3874L47.7216 69.1238Z" fill="#606060"/>
<path d="M53.6312 69.4882C53.4669 69.6866 53.2789 69.8348 53.0703 69.9295C52.8616 70.0243 52.6351 70.0717 52.3939 70.0717C52.1364 70.0717 51.8996 70.0288 51.6805 69.9414C51.4615 69.854 51.275 69.7311 51.1196 69.5741C50.9642 69.4171 50.8429 69.229 50.7555 69.0127C50.6682 68.7965 50.6253 68.5595 50.6253 68.3018C50.6253 68.044 50.6697 67.8085 50.7555 67.5923C50.8429 67.376 50.9642 67.1894 51.1196 67.0309C51.275 66.8739 51.4615 66.751 51.6805 66.6636C51.8981 66.5762 52.1364 66.5318 52.3939 66.5318C52.6411 66.5318 52.8705 66.5836 53.0821 66.6858C53.2923 66.788 53.4817 66.9302 53.646 67.1154L53.2967 67.3775C53.1709 67.2368 53.0318 67.1257 52.8823 67.0457C52.7313 66.9658 52.57 66.9258 52.3939 66.9258C52.1897 66.9258 52.0061 66.9613 51.8404 67.0354C51.6761 67.108 51.5355 67.2072 51.4186 67.3301C51.3017 67.4531 51.2143 67.5997 51.1537 67.7671C51.093 67.9344 51.0634 68.1137 51.0634 68.3018C51.0634 68.4914 51.093 68.6706 51.1537 68.8379C51.2143 69.0053 51.3031 69.1505 51.4186 69.2749C51.5355 69.3993 51.6761 69.4971 51.8404 69.5696C52.0047 69.6422 52.1897 69.6792 52.3939 69.6792C52.5789 69.6792 52.7461 69.6363 52.9001 69.5519C53.0525 69.4674 53.1842 69.3534 53.2967 69.2127L53.6312 69.4882Z" fill="#606060"/>
<path d="M54.315 64.4774H54.7516V67.2087H54.7664C54.8537 67.025 54.9988 66.8651 55.203 66.7317C55.4072 66.5984 55.644 66.5318 55.9164 66.5318C56.1783 66.5318 56.3914 66.5733 56.5572 66.6562C56.7215 66.7392 56.8517 66.8473 56.9464 66.9806C57.0412 67.1139 57.1063 67.2679 57.1433 67.4427C57.1803 67.6175 57.198 67.7982 57.198 67.9818V69.9844H56.7614V68.0041C56.7614 67.8678 56.7496 67.736 56.7244 67.6071C56.6993 67.4783 56.6578 67.3627 56.5972 67.2605C56.5365 67.1583 56.4521 67.0769 56.3426 67.0176C56.2331 66.9569 56.0925 66.9258 55.9164 66.9258C55.7565 66.9258 55.6041 66.9539 55.462 67.0087C55.3184 67.065 55.1956 67.1494 55.0905 67.2635C54.9869 67.3775 54.904 67.5212 54.8434 67.693C54.7827 67.8648 54.7531 68.0677 54.7531 68.3018V69.9844H54.3165V64.4774H54.315Z" fill="#606060"/>
<path d="M61.3301 69.3489C61.1599 69.6067 60.9498 69.7903 60.7011 69.9029C60.451 70.014 60.1757 70.0703 59.8753 70.0703C59.6178 70.0703 59.3854 70.0273 59.1767 69.9399C58.9681 69.8525 58.789 69.7296 58.638 69.5726C58.4871 69.4156 58.3731 69.2275 58.2932 69.0112C58.2133 68.795 58.1733 68.5565 58.1733 68.2929C58.1733 68.0411 58.2147 67.8071 58.2976 67.5938C58.3805 67.3805 58.4959 67.1939 58.6469 67.0369C58.7964 66.8784 58.974 66.7554 59.1782 66.6651C59.3825 66.5747 59.6074 66.5303 59.8546 66.5303C60.1121 66.5303 60.3385 66.5747 60.5354 66.6651C60.7322 66.754 60.8965 66.8739 61.0297 67.022C61.1629 67.1702 61.2635 67.339 61.3316 67.5286C61.3997 67.7182 61.4337 67.9093 61.4337 68.1048V68.4099H58.6099C58.6099 68.5017 58.6277 68.6202 58.6647 68.7624C58.7017 68.9046 58.7683 69.0453 58.8645 69.1816C58.9607 69.3178 59.0909 69.4334 59.2537 69.5311C59.4165 69.6289 59.6267 69.6763 59.8827 69.6763C60.1062 69.6763 60.3223 69.623 60.5309 69.5163C60.7396 69.4097 60.8995 69.2645 61.0119 69.0794L61.3301 69.3489ZM60.9957 68.0159C60.9957 67.8648 60.9646 67.7256 60.9039 67.5938C60.8432 67.4619 60.7603 67.3479 60.6567 67.2472C60.5517 67.1479 60.4288 67.0694 60.2853 67.0102C60.1417 66.9524 59.9907 66.9228 59.8309 66.9228C59.5926 66.9228 59.3958 66.9717 59.2374 67.068C59.0805 67.1657 58.9547 67.2768 58.863 67.4027C58.7712 67.5286 58.7046 67.6515 58.6661 67.7715C58.6277 67.89 58.6084 67.9715 58.6084 68.0144H60.9957V68.0159Z" fill="#606060"/>
<path d="M64.4233 64.827H65.9078C66.1017 64.827 66.2985 64.8433 66.4968 64.8744C66.6951 64.9055 66.8742 64.9721 67.0311 65.0714C67.1895 65.1706 67.3167 65.3084 67.4174 65.4861C67.5165 65.6638 67.5669 65.8979 67.5669 66.1896C67.5669 66.4518 67.4884 66.6799 67.3345 66.8739C67.1791 67.068 66.9482 67.1968 66.6433 67.2605V67.2753C66.8135 67.2901 66.9675 67.3301 67.1095 67.3953C67.2501 67.4605 67.3715 67.5479 67.4736 67.6575C67.5757 67.7671 67.6542 67.8974 67.7104 68.047C67.7667 68.1981 67.7948 68.3625 67.7948 68.5432C67.7948 68.8394 67.7371 69.0809 67.6231 69.2675C67.5091 69.4541 67.3656 69.6007 67.1939 69.7074C67.0222 69.814 66.8343 69.8866 66.633 69.9266C66.4317 69.9651 66.2437 69.9844 66.0691 69.9844H64.4248V64.827H64.4233ZM64.9043 67.0546H65.9019C66.149 67.0546 66.3503 67.025 66.5057 66.9643C66.6611 66.9036 66.7825 66.8295 66.8698 66.7421C66.9571 66.6547 67.0148 66.5614 67.0444 66.4622C67.074 66.3629 67.0888 66.2711 67.0888 66.1896C67.0888 66.0104 67.0577 65.8608 66.9971 65.7409C66.9364 65.6224 66.855 65.5276 66.7529 65.4565C66.6507 65.3854 66.5323 65.3365 66.3962 65.3069C66.26 65.2773 66.1179 65.2624 65.967 65.2624H64.9043V67.0546ZM64.9043 69.5459H66.004C66.2852 69.5459 66.5116 69.5119 66.6848 69.4437C66.8565 69.3756 66.9897 69.2912 67.0814 69.189C67.1732 69.0868 67.2353 68.9787 67.2664 68.8646C67.2975 68.7506 67.3138 68.6469 67.3138 68.555C67.3138 68.3655 67.2768 68.2025 67.2043 68.0663C67.1317 67.93 67.037 67.8204 66.9201 67.7345C66.8032 67.6501 66.6715 67.5879 66.5235 67.5493C66.3755 67.5108 66.226 67.4916 66.0765 67.4916H64.9043V69.5459Z" fill="#606060"/>
<path d="M71.8545 69.3489C71.6843 69.6067 71.4742 69.7903 71.2255 69.9029C70.9754 70.014 70.7001 70.0703 70.3997 70.0703C70.1422 70.0703 69.9098 70.0273 69.7011 69.9399C69.4925 69.8525 69.3134 69.7296 69.1624 69.5726C69.0115 69.4156 68.8975 69.2275 68.8176 69.0112C68.7377 68.795 68.6977 68.5565 68.6977 68.2929C68.6977 68.0411 68.7391 67.8071 68.822 67.5938C68.9049 67.3805 69.0203 67.1939 69.1713 67.0369C69.3208 66.8784 69.4984 66.7554 69.7026 66.6651C69.9069 66.5747 70.1318 66.5303 70.379 66.5303C70.6365 66.5303 70.8629 66.5747 71.0598 66.6651C71.2566 66.754 71.4209 66.8739 71.5541 67.022C71.6873 67.1702 71.7879 67.339 71.856 67.5286C71.9241 67.7182 71.9581 67.9093 71.9581 68.1048V68.4099H69.1343C69.1343 68.5017 69.1521 68.6202 69.1891 68.7624C69.2261 68.9046 69.2927 69.0453 69.3889 69.1816C69.4851 69.3178 69.6153 69.4334 69.7781 69.5311C69.9409 69.6289 70.1511 69.6763 70.4071 69.6763C70.6306 69.6763 70.8466 69.623 71.0553 69.5163C71.264 69.4097 71.4238 69.2645 71.5363 69.0794L71.8545 69.3489ZM71.5186 68.0159C71.5186 67.8648 71.4875 67.7256 71.4268 67.5938C71.3661 67.4619 71.2833 67.3479 71.1797 67.2472C71.0746 67.1479 70.9517 67.0694 70.8082 67.0102C70.6646 66.9524 70.5137 66.9228 70.3538 66.9228C70.1155 66.9228 69.9187 66.9717 69.7603 67.068C69.6035 67.1657 69.4777 67.2768 69.3859 67.4027C69.2941 67.5286 69.2275 67.6515 69.1891 67.7715C69.1506 67.89 69.1313 67.9715 69.1313 68.0144H71.5186V68.0159Z" fill="#606060"/>
<path d="M72.9304 67.5642C72.9304 67.5019 72.9275 67.4249 72.923 67.3346C72.9186 67.2457 72.9141 67.1539 72.9127 67.062C72.9097 66.9702 72.9067 66.8828 72.9023 66.8028C72.8979 66.7229 72.8949 66.6606 72.8949 66.6177H73.3315C73.3359 66.7436 73.3404 66.865 73.3419 66.9821C73.3448 67.0991 73.3507 67.1746 73.3596 67.2072C73.4706 67.0087 73.6142 66.8458 73.7888 66.7199C73.9635 66.594 74.1766 66.5303 74.4297 66.5303C74.4726 66.5303 74.5155 66.5347 74.557 66.5422C74.5984 66.5496 74.6398 66.5584 74.6842 66.5673L74.6339 66.9969C74.5762 66.9776 74.52 66.9672 74.4667 66.9672C74.2772 66.9672 74.113 66.9969 73.9753 67.0576C73.8377 67.1183 73.7237 67.2027 73.6334 67.3094C73.5431 67.416 73.4765 67.5419 73.4336 67.6841C73.3892 67.8278 73.3685 67.9818 73.3685 68.1462V69.9814H72.9319V67.5642H72.9304Z" fill="#606060"/>
<path d="M77.9669 68.5699C77.9669 68.7357 77.9683 68.8839 77.9698 69.0142C77.9728 69.1445 77.9757 69.266 77.9802 69.3786C77.9846 69.4911 77.9905 69.5948 77.9979 69.6911C78.0053 69.7888 78.0157 69.8851 78.0305 69.9829H77.6235C77.5939 69.8185 77.5791 69.6363 77.5791 69.4363H77.5643C77.4385 69.6555 77.2816 69.8155 77.0951 69.9177C76.9087 70.0199 76.6719 70.0703 76.3862 70.0703C76.2412 70.0703 76.0976 70.0525 75.957 70.0155C75.8164 69.9799 75.6906 69.9207 75.5781 69.8407C75.4671 69.7607 75.3754 69.657 75.3058 69.5311C75.2363 69.4052 75.2007 69.2527 75.2007 69.072C75.2007 68.8142 75.2659 68.6113 75.3976 68.4602C75.5278 68.3092 75.6891 68.1966 75.8815 68.1211C76.0725 68.047 76.2767 67.9981 76.4928 67.9759C76.7089 67.9537 76.8998 67.9433 77.0641 67.9433H77.5732V67.7389C77.5732 67.4486 77.4829 67.2398 77.3038 67.1124C77.1247 66.9865 76.8983 66.9228 76.6275 66.9228C76.2397 66.9228 75.8978 67.0487 75.6018 67.302L75.3473 67.0028C75.5071 66.8473 75.7069 66.7303 75.9437 66.6503C76.1805 66.5703 76.4099 66.5303 76.6275 66.5303C77.0345 66.5303 77.3601 66.6266 77.6028 66.8176C77.8455 67.0102 77.9669 67.3198 77.9669 67.7463V68.5699V68.5699ZM77.0937 68.2929C76.9087 68.2929 76.7311 68.3047 76.5579 68.3299C76.3862 68.3536 76.2308 68.3951 76.0917 68.4543C75.9541 68.5121 75.8431 68.5906 75.7602 68.6869C75.6773 68.7846 75.6373 68.9046 75.6373 69.0512C75.6373 69.1534 75.6595 69.2438 75.7069 69.3238C75.7543 69.4037 75.812 69.4689 75.8845 69.5208C75.957 69.5711 76.0384 69.6096 76.1287 69.6363C76.219 69.6629 76.3093 69.6763 76.401 69.6763C76.6334 69.6763 76.8258 69.6422 76.9767 69.5741C77.1262 69.5059 77.2476 69.4171 77.3364 69.3075C77.4267 69.1979 77.4873 69.0749 77.5214 68.9357C77.5554 68.7965 77.5717 68.6572 77.5717 68.5165V68.2914H77.0937V68.2929Z" fill="#606060"/>
<path d="M80.776 67.0117H79.8154V69.2038C79.8154 69.3549 79.8569 69.4704 79.9398 69.5533C80.0226 69.6363 80.1366 69.6778 80.2816 69.6778C80.3645 69.6778 80.4474 69.6659 80.5332 69.6452C80.6176 69.623 80.699 69.5948 80.7774 69.5607L80.8144 69.9547C80.7316 69.9844 80.6368 70.011 80.5303 70.0347C80.4237 70.0584 80.329 70.0703 80.2461 70.0703C80.0907 70.0703 79.9575 70.0466 79.8465 70.0021C79.734 69.9562 79.6452 69.894 79.5772 69.8155C79.5091 69.7385 79.4602 69.6466 79.4277 69.543C79.3966 69.4393 79.3803 69.3252 79.3803 69.2038V67.0117H78.6522V66.6192H79.3803V65.6505H79.8169V66.6192H80.7774V67.0117H80.776Z" fill="#606060"/>
<path d="M84.4004 69.0364C84.4004 69.0986 84.4034 69.1756 84.4078 69.266C84.4122 69.3549 84.4167 69.4467 84.4182 69.5385C84.4211 69.6304 84.4241 69.7163 84.4285 69.7977C84.4329 69.8777 84.4359 69.9399 84.4359 69.9829H83.9993C83.9949 69.857 83.9904 69.7355 83.989 69.6185C83.986 69.5015 83.9801 69.426 83.9712 69.3934H83.949C83.8617 69.577 83.7166 69.737 83.5124 69.8703C83.3082 70.0036 83.0714 70.0703 82.799 70.0703C82.5371 70.0703 82.3225 70.0288 82.1552 69.9473C81.988 69.8644 81.8563 69.7563 81.7616 69.623C81.6668 69.4897 81.6032 69.3356 81.5692 69.1594C81.5351 68.9846 81.5188 68.8054 81.5188 68.6202V66.6177H81.9554V68.598C81.9554 68.7343 81.9673 68.8661 81.9924 68.995C82.0161 69.1238 82.059 69.2393 82.1197 69.3415C82.1804 69.4437 82.2648 69.5252 82.3743 69.5844C82.4838 69.6452 82.6259 69.6763 82.8005 69.6763C82.9603 69.6763 83.1113 69.6481 83.2549 69.5933C83.3984 69.5371 83.5213 69.4526 83.6263 69.3386C83.7299 69.2245 83.8128 69.0809 83.8735 68.909C83.9342 68.7372 83.9638 68.5343 83.9638 68.3003V66.6177H84.4004V69.0364Z" fill="#606060"/>
<path d="M85.6007 67.5642C85.6007 67.5019 85.5977 67.4249 85.5933 67.3346C85.5889 67.2457 85.5844 67.1539 85.5829 67.062C85.58 66.9702 85.577 66.8828 85.5726 66.8028C85.5681 66.7229 85.5652 66.6606 85.5652 66.6177H86.0018C86.0062 66.7436 86.0107 66.865 86.0121 66.9821C86.0151 67.0991 86.021 67.1746 86.0299 67.2072H86.0521C86.1394 67.0235 86.2845 66.8636 86.4887 66.7303C86.6929 66.597 86.9297 66.5303 87.2021 66.5303C87.464 66.5303 87.6771 66.5718 87.8429 66.6547C88.0072 66.7377 88.1374 66.8458 88.2321 66.9791C88.3269 67.1124 88.392 67.2664 88.429 67.4412C88.466 67.616 88.4837 67.7967 88.4837 67.9804V69.9829H88.0471V68.0026C88.0471 67.8663 88.0353 67.7345 88.0101 67.6056C87.985 67.4768 87.9435 67.3612 87.8829 67.259C87.8222 67.1568 87.7378 67.0754 87.6283 67.0161C87.5188 66.9554 87.3782 66.9243 87.2021 66.9243C87.0422 66.9243 86.8898 66.9524 86.7477 67.0072C86.6041 67.0635 86.4813 67.1479 86.3762 67.262C86.2726 67.376 86.1897 67.5197 86.1291 67.6915C86.0684 67.8633 86.0388 68.0663 86.0388 68.3003V69.9829H85.6022V67.5642H85.6007Z" fill="#606060"/>
<path d="M93.0244 69.7637C93.0244 70.1814 92.9637 70.5191 92.8423 70.7753C92.721 71.033 92.57 71.2315 92.388 71.3722C92.2059 71.5129 92.0106 71.6077 91.8019 71.6566C91.5932 71.7055 91.4038 71.7292 91.2336 71.7292C91.0634 71.7292 90.8976 71.7129 90.7348 71.6818C90.572 71.6507 90.4181 71.6047 90.2731 71.544C90.128 71.4833 89.9948 71.4092 89.8764 71.3218C89.758 71.2345 89.6544 71.1352 89.5671 71.0227L89.909 70.7027C90.0644 70.9205 90.2583 71.0804 90.4906 71.1841C90.723 71.2863 90.9716 71.3367 91.2336 71.3367C91.4571 71.3367 91.645 71.307 91.7975 71.2493C91.9499 71.1915 92.0757 71.1145 92.1763 71.0197C92.2755 70.9249 92.3539 70.8212 92.4087 70.7072C92.4649 70.5931 92.5049 70.4791 92.5315 70.365C92.5582 70.251 92.5745 70.1428 92.5789 70.0406C92.5833 69.9384 92.5863 69.857 92.5863 69.7933V69.3267H92.5715C92.4457 69.5311 92.274 69.6911 92.0579 69.8081C91.8419 69.9251 91.5888 69.9829 91.2972 69.9829C91.0501 69.9829 90.8162 69.9384 90.5987 69.8481C90.3796 69.7577 90.1902 69.6348 90.0274 69.4763C89.8646 69.3193 89.7358 69.1357 89.6411 68.9268C89.5464 68.718 89.499 68.4943 89.499 68.2573C89.499 68.0189 89.5464 67.7967 89.6411 67.5864C89.7358 67.3775 89.8646 67.1953 90.0274 67.0398C90.1902 66.8843 90.3796 66.7614 90.5987 66.668C90.8162 66.5762 91.0501 66.5288 91.2972 66.5288C91.5888 66.5288 91.8419 66.5881 92.0579 66.7036C92.274 66.8206 92.4442 66.9806 92.5715 67.185H92.5863V66.6177H93.0229V69.7637H93.0244ZM92.6026 68.2573C92.6026 68.0737 92.5671 67.8989 92.4975 67.736C92.4265 67.573 92.3317 67.4323 92.2133 67.3138C92.0949 67.1953 91.9543 67.1005 91.7915 67.0295C91.6287 66.9598 91.4556 66.9243 91.2706 66.9243C91.0856 66.9243 90.9124 66.9598 90.7496 67.0295C90.5868 67.1005 90.4462 67.1953 90.3278 67.3138C90.2094 67.4323 90.1147 67.5745 90.0437 67.736C89.9741 67.8989 89.9386 68.0722 89.9386 68.2573C89.9386 68.4425 89.9741 68.6158 90.0437 68.7772C90.1147 68.9401 90.2079 69.0809 90.3278 69.1993C90.4462 69.3178 90.5868 69.4126 90.7496 69.4837C90.9124 69.5548 91.0856 69.5889 91.2706 69.5889C91.4541 69.5889 91.6287 69.5533 91.7915 69.4837C91.9543 69.4141 92.0949 69.3193 92.2133 69.1993C92.3317 69.0809 92.4265 68.9401 92.4975 68.7772C92.5671 68.6158 92.6026 68.441 92.6026 68.2573Z" fill="#606060"/>
<path d="M98.9474 68.4825L99.6889 67.142H100.183L99.2522 68.7876L100.424 70.0184H99.7762L99.0051 69.189C98.7964 69.4704 98.567 69.6955 98.3169 69.8629C98.0668 70.0303 97.7619 70.1147 97.4037 70.1147C97.1862 70.1147 96.9804 70.0792 96.7895 70.0095C96.5971 69.9385 96.4314 69.8377 96.2908 69.7074C96.1502 69.577 96.0392 69.4186 95.9563 69.2334C95.8734 69.0498 95.832 68.8424 95.832 68.6143C95.832 68.4158 95.866 68.2396 95.9341 68.09C96.0022 67.9389 96.091 67.8056 96.199 67.6886C96.3085 67.573 96.4329 67.4664 96.5735 67.3716C96.7141 67.2768 96.8591 67.1835 97.01 67.0917C96.9375 67.0043 96.8635 66.9139 96.788 66.8191C96.7126 66.7243 96.646 66.6266 96.5882 66.5244C96.5305 66.4222 96.4817 66.317 96.4432 66.2074C96.4047 66.0978 96.3855 65.9852 96.3855 65.8682C96.3855 65.6846 96.421 65.5187 96.4906 65.3735C96.5601 65.2284 96.6548 65.1054 96.7747 65.0047C96.8931 64.9055 97.0322 64.8285 97.1891 64.7751C97.3475 64.7218 97.5103 64.6952 97.6805 64.6952C97.8314 64.6952 97.9765 64.7218 98.1171 64.7751C98.2577 64.8285 98.382 64.9025 98.4915 64.9973C98.601 65.0921 98.6869 65.2062 98.749 65.3395C98.8127 65.4728 98.8438 65.6224 98.8438 65.7883C98.8438 65.9734 98.8112 66.1334 98.7461 66.2696C98.681 66.4059 98.5936 66.5273 98.4841 66.634C98.3746 66.7406 98.2518 66.8354 98.1171 66.9184C97.9809 67.0013 97.8403 67.0813 97.6953 67.1583L98.9474 68.4825ZM97.2883 67.3983C97.1714 67.4664 97.0574 67.539 96.9435 67.616C96.8295 67.6945 96.7259 67.7804 96.6312 67.8752C96.5364 67.97 96.461 68.0766 96.4018 68.1951C96.344 68.3136 96.3145 68.4484 96.3145 68.5995C96.3145 68.7654 96.344 68.9135 96.4047 69.0438C96.4654 69.1742 96.5483 69.2867 96.6519 69.3815C96.7555 69.4763 96.8798 69.5489 97.0234 69.6007C97.1669 69.6511 97.3179 69.6778 97.4777 69.6778C97.6139 69.6778 97.7412 69.6555 97.8596 69.6126C97.978 69.5696 98.089 69.5104 98.1911 69.4378C98.2932 69.3652 98.3879 69.2808 98.4752 69.186C98.5626 69.0912 98.6425 68.9905 98.715 68.8839L97.2883 67.3983ZM97.645 65.1321C97.4274 65.1321 97.2424 65.1988 97.0915 65.3321C96.9405 65.4654 96.8665 65.6416 96.8665 65.8608C96.8665 65.9482 96.8842 66.0386 96.9212 66.1304C96.9582 66.2222 97.0041 66.3126 97.0589 66.4C97.1151 66.4874 97.1758 66.5703 97.2409 66.6473C97.306 66.7243 97.3652 66.7954 97.42 66.8576C97.5221 66.8043 97.6287 66.7466 97.7397 66.6829C97.8507 66.6192 97.9528 66.5466 98.0446 66.4637C98.1363 66.3807 98.2133 66.2874 98.274 66.1837C98.3347 66.08 98.3642 65.9586 98.3642 65.8238C98.3642 65.6194 98.2962 65.4535 98.16 65.3247C98.0238 65.1958 97.8537 65.1321 97.645 65.1321Z" fill="#606060"/>
<path d="M107.369 69.1742C107.121 69.5089 106.834 69.7503 106.51 69.8955C106.185 70.0406 105.834 70.1132 105.455 70.1132C105.061 70.1132 104.702 70.0466 104.374 69.9133C104.047 69.78 103.766 69.5933 103.534 69.3519C103.301 69.112 103.119 68.8246 102.988 68.4928C102.857 68.161 102.791 67.7982 102.791 67.4042C102.791 67.0102 102.856 66.6488 102.988 66.3185C103.118 65.9882 103.3 65.7038 103.534 65.4624C103.766 65.2224 104.047 65.0343 104.374 64.8981C104.702 64.7618 105.063 64.6937 105.455 64.6937C105.804 64.6937 106.131 64.7559 106.433 64.8788C106.737 65.0032 107.001 65.2106 107.229 65.5024L106.836 65.8297C106.676 65.5868 106.47 65.4091 106.22 65.298C105.97 65.1854 105.714 65.1306 105.452 65.1306C105.117 65.1306 104.816 65.1884 104.546 65.3054C104.277 65.4224 104.047 65.5824 103.858 65.7868C103.669 65.9912 103.523 66.2311 103.421 66.5081C103.319 66.7851 103.269 67.0828 103.269 67.4042C103.269 67.7241 103.319 68.0233 103.421 68.3003C103.523 68.5773 103.669 68.8172 103.858 69.0216C104.047 69.226 104.277 69.386 104.546 69.503C104.816 69.62 105.117 69.6778 105.452 69.6778C105.584 69.6778 105.718 69.6615 105.859 69.6304C106 69.5992 106.137 69.5504 106.27 69.4852C106.404 69.42 106.531 69.3371 106.652 69.2378C106.774 69.1386 106.88 69.0186 106.972 68.8779L107.369 69.1742Z" fill="#606060"/>
<path d="M107.935 68.3003C107.935 68.0426 107.98 67.8071 108.066 67.5908C108.153 67.3746 108.274 67.1879 108.43 67.0295C108.585 66.8724 108.772 66.7495 108.991 66.6621C109.208 66.5747 109.446 66.5303 109.704 66.5303C109.961 66.5303 110.198 66.5747 110.413 66.6621C110.629 66.7495 110.815 66.8724 110.974 67.0295C111.131 67.1879 111.253 67.3746 111.341 67.5908C111.428 67.8071 111.471 68.044 111.471 68.3003C111.471 68.558 111.428 68.795 111.341 69.0112C111.253 69.2275 111.131 69.4141 110.974 69.5726C110.815 69.7296 110.629 69.8525 110.413 69.9399C110.197 70.0273 109.96 70.0703 109.704 70.0703C109.446 70.0703 109.21 70.0273 108.991 69.9399C108.772 69.8525 108.585 69.7296 108.43 69.5726C108.274 69.4156 108.153 69.2275 108.066 69.0112C107.98 68.795 107.935 68.558 107.935 68.3003ZM108.372 68.3003C108.372 68.4899 108.402 68.6691 108.462 68.8365C108.523 69.0038 108.612 69.149 108.727 69.2734C108.844 69.3978 108.985 69.4956 109.149 69.5682C109.313 69.6407 109.498 69.6778 109.702 69.6778C109.907 69.6778 110.09 69.6407 110.256 69.5682C110.42 69.4956 110.561 69.3963 110.678 69.2734C110.795 69.149 110.882 69.0038 110.943 68.8365C111.003 68.6691 111.033 68.4899 111.033 68.3003C111.033 68.1107 111.003 67.933 110.943 67.7656C110.882 67.5982 110.793 67.4531 110.678 67.3286C110.562 67.2042 110.42 67.1065 110.256 67.0339C110.092 66.9613 109.907 66.9243 109.702 66.9243C109.498 66.9243 109.315 66.9598 109.149 67.0339C108.985 67.1065 108.844 67.2057 108.727 67.3286C108.61 67.4516 108.523 67.5982 108.462 67.7656C108.402 67.933 108.372 68.1107 108.372 68.3003Z" fill="#606060"/>
<path d="M115.06 68.5699C115.06 68.7357 115.062 68.8839 115.063 69.0142C115.065 69.1445 115.069 69.266 115.073 69.3786C115.078 69.4911 115.084 69.5948 115.091 69.6911C115.099 69.7888 115.109 69.8851 115.124 69.9829H114.717C114.687 69.8185 114.672 69.6363 114.672 69.4363H114.658C114.532 69.6555 114.375 69.8155 114.188 69.9177C114.002 70.0199 113.765 70.0703 113.479 70.0703C113.334 70.0703 113.191 70.0525 113.05 70.0155C112.91 69.9799 112.784 69.9207 112.671 69.8407C112.56 69.7607 112.469 69.657 112.399 69.5311C112.33 69.4052 112.294 69.2527 112.294 69.072C112.294 68.8142 112.359 68.6113 112.491 68.4602C112.621 68.3092 112.782 68.1966 112.975 68.1211C113.166 68.047 113.37 67.9981 113.586 67.9759C113.802 67.9537 113.993 67.9433 114.157 67.9433H114.666V67.7389C114.666 67.4486 114.576 67.2398 114.397 67.1124C114.218 66.9865 113.992 66.9228 113.721 66.9228C113.333 66.9228 112.991 67.0487 112.695 67.302L112.441 67.0028C112.6 66.8473 112.799 66.7303 113.037 66.6503C113.274 66.5703 113.503 66.5303 113.721 66.5303C114.128 66.5303 114.453 66.6266 114.696 66.8176C114.939 67.0087 115.06 67.3198 115.06 67.7463V68.5699V68.5699ZM114.187 68.2929C114.002 68.2929 113.824 68.3047 113.651 68.3299C113.479 68.3536 113.324 68.3951 113.185 68.4543C113.047 68.5121 112.936 68.5906 112.853 68.6869C112.771 68.7846 112.731 68.9046 112.731 69.0512C112.731 69.1534 112.753 69.2438 112.8 69.3238C112.848 69.4037 112.905 69.4689 112.978 69.5208C113.05 69.5711 113.132 69.6096 113.222 69.6363C113.312 69.6629 113.403 69.6763 113.494 69.6763C113.727 69.6763 113.919 69.6422 114.07 69.5741C114.219 69.5059 114.341 69.4171 114.43 69.3075C114.52 69.1979 114.581 69.0749 114.615 68.9357C114.649 68.7965 114.665 68.6572 114.665 68.5165V68.2914H114.187V68.2929Z" fill="#606060"/>
<path d="M119.041 69.4882C118.877 69.6866 118.689 69.8348 118.48 69.9295C118.272 70.0243 118.045 70.0717 117.804 70.0717C117.547 70.0717 117.31 70.0288 117.091 69.9414C116.872 69.854 116.685 69.7311 116.53 69.5741C116.374 69.4171 116.253 69.229 116.166 69.0127C116.078 68.7965 116.035 68.5595 116.035 68.3018C116.035 68.044 116.08 67.8085 116.166 67.5923C116.253 67.376 116.374 67.1894 116.53 67.0309C116.685 66.8739 116.872 66.751 117.091 66.6636C117.308 66.5762 117.547 66.5318 117.804 66.5318C118.051 66.5318 118.281 66.5836 118.492 66.6858C118.702 66.788 118.892 66.9302 119.056 67.1154L118.707 67.3775C118.581 67.2368 118.442 67.1257 118.292 67.0457C118.141 66.9658 117.98 66.9258 117.804 66.9258C117.6 66.9258 117.416 66.9613 117.251 67.0354C117.086 67.108 116.946 67.2072 116.829 67.3301C116.712 67.4531 116.624 67.5997 116.564 67.7671C116.503 67.9344 116.474 68.1137 116.474 68.3018C116.474 68.4914 116.503 68.6706 116.564 68.8379C116.624 69.0053 116.713 69.1505 116.829 69.2749C116.946 69.3993 117.086 69.4971 117.251 69.5696C117.415 69.6422 117.6 69.6792 117.804 69.6792C117.989 69.6792 118.158 69.6363 118.31 69.5519C118.463 69.4674 118.594 69.3534 118.707 69.2127L119.041 69.4882Z" fill="#606060"/>
<path d="M119.725 64.4774H120.162V67.2087H120.177C120.264 67.025 120.409 66.8651 120.613 66.7317C120.817 66.5984 121.054 66.5318 121.326 66.5318C121.588 66.5318 121.802 66.5733 121.967 66.6562C122.132 66.7392 122.262 66.8473 122.357 66.9806C122.451 67.1139 122.516 67.2679 122.553 67.4427C122.59 67.6175 122.608 67.7982 122.608 67.9818V69.9844H122.172V68.0041C122.172 67.8678 122.16 67.736 122.135 67.6071C122.111 67.4783 122.068 67.3627 122.007 67.2605C121.947 67.1583 121.862 67.0769 121.753 67.0176C121.643 66.9569 121.503 66.9258 121.326 66.9258C121.167 66.9258 121.014 66.9539 120.872 67.0087C120.729 67.065 120.606 67.1494 120.501 67.2635C120.397 67.3775 120.314 67.5212 120.253 67.693C120.193 67.8648 120.163 68.0677 120.163 68.3018V69.9844H119.727V64.4774H119.725Z" fill="#606060"/>
<path d="M123.734 65.2847C123.734 65.1928 123.765 65.1158 123.829 65.0521C123.891 64.9899 123.97 64.9573 124.061 64.9573C124.153 64.9573 124.232 64.9899 124.294 65.0521C124.356 65.1158 124.389 65.1928 124.389 65.2847C124.389 65.3765 124.357 65.455 124.294 65.5172C124.23 65.5809 124.153 65.612 124.061 65.612C123.97 65.612 123.891 65.5809 123.829 65.5172C123.767 65.455 123.734 65.378 123.734 65.2847ZM123.844 66.6177H124.28V69.9829H123.844V66.6177Z" fill="#606060"/>
<path d="M125.518 67.5642C125.518 67.5019 125.515 67.4249 125.51 67.3346C125.506 67.2457 125.502 67.1539 125.5 67.062C125.497 66.9702 125.494 66.8828 125.49 66.8028C125.485 66.7229 125.482 66.6606 125.482 66.6177H125.919C125.923 66.7436 125.928 66.865 125.929 66.9821C125.932 67.0991 125.938 67.1746 125.947 67.2072H125.969C126.057 67.0235 126.202 66.8636 126.406 66.7303C126.61 66.597 126.847 66.5303 127.119 66.5303C127.381 66.5303 127.594 66.5718 127.76 66.6547C127.924 66.7377 128.055 66.8458 128.149 66.9791C128.244 67.1124 128.309 67.2664 128.346 67.4412C128.383 67.616 128.401 67.7967 128.401 67.9804V69.9829H127.964V68.0026C127.964 67.8663 127.952 67.7345 127.927 67.6056C127.902 67.4768 127.861 67.3612 127.8 67.259C127.739 67.1568 127.655 67.0754 127.545 67.0161C127.436 66.9554 127.295 66.9243 127.119 66.9243C126.959 66.9243 126.807 66.9524 126.665 67.0072C126.521 67.0635 126.398 67.1479 126.293 67.262C126.19 67.376 126.107 67.5197 126.046 67.6915C125.985 67.8633 125.956 68.0663 125.956 68.3003V69.9829H125.519V67.5642H125.518Z" fill="#606060"/>
<path d="M132.94 69.7637C132.94 70.1814 132.879 70.5191 132.758 70.7753C132.637 71.033 132.486 71.2315 132.304 71.3722C132.122 71.5129 131.926 71.6077 131.718 71.6566C131.509 71.7055 131.319 71.7292 131.149 71.7292C130.979 71.7292 130.813 71.7129 130.65 71.6818C130.488 71.6507 130.334 71.6047 130.189 71.544C130.044 71.4833 129.91 71.4092 129.792 71.3218C129.674 71.2345 129.57 71.1352 129.483 71.0227L129.825 70.7027C129.98 70.9205 130.174 71.0804 130.406 71.1841C130.639 71.2863 130.887 71.3367 131.149 71.3367C131.373 71.3367 131.561 71.307 131.713 71.2493C131.866 71.1915 131.991 71.1145 132.092 71.0197C132.191 70.9249 132.27 70.8212 132.324 70.7072C132.381 70.5931 132.421 70.4791 132.447 70.365C132.474 70.251 132.49 70.1428 132.495 70.0406C132.499 69.9384 132.502 69.857 132.502 69.7933V69.3267H132.487C132.361 69.5311 132.19 69.6911 131.974 69.8081C131.758 69.9251 131.504 69.9829 131.213 69.9829C130.966 69.9829 130.732 69.9384 130.514 69.8481C130.295 69.7577 130.106 69.6348 129.943 69.4763C129.78 69.3193 129.651 69.1357 129.557 68.9268C129.462 68.718 129.415 68.4943 129.415 68.2573C129.415 68.0189 129.462 67.7967 129.557 67.5864C129.651 67.3775 129.78 67.1953 129.943 67.0398C130.106 66.8843 130.295 66.7614 130.514 66.668C130.732 66.5762 130.966 66.5288 131.213 66.5288C131.504 66.5288 131.758 66.5881 131.974 66.7036C132.19 66.8206 132.36 66.9806 132.487 67.185H132.502V66.6177H132.94V69.7637ZM132.518 68.2573C132.518 68.0737 132.483 67.8989 132.413 67.736C132.342 67.573 132.247 67.4323 132.129 67.3138C132.011 67.1953 131.87 67.1005 131.707 67.0295C131.544 66.9598 131.371 66.9243 131.186 66.9243C131.001 66.9243 130.828 66.9598 130.665 67.0295C130.502 67.1005 130.362 67.1953 130.243 67.3138C130.125 67.4323 130.03 67.5745 129.959 67.736C129.89 67.8989 129.854 68.0722 129.854 68.2573C129.854 68.4425 129.89 68.6158 129.959 68.7772C130.03 68.9401 130.124 69.0809 130.243 69.1993C130.362 69.3178 130.502 69.4126 130.665 69.4837C130.828 69.5548 131.001 69.5889 131.186 69.5889C131.37 69.5889 131.544 69.5533 131.707 69.4837C131.87 69.4141 132.011 69.3193 132.129 69.1993C132.247 69.0809 132.342 68.9401 132.413 68.7772C132.483 68.6158 132.518 68.441 132.518 68.2573Z" fill="#606060"/>
<path d="M102.963 18.0417C102.946 17.1264 102.824 16.217 102.593 15.346C102.322 14.324 101.924 13.2739 101.381 12.3645C99.6208 9.41993 96.8547 6.97454 93.5484 5.95402C91.0117 5.17049 88.3077 5.30972 85.8198 6.20286C85.8065 6.25618 85.8006 6.30802 85.7962 6.35986C87.3457 5.80739 88.9471 5.54226 90.5869 5.63706C94.2973 5.85034 97.6376 7.84102 99.9302 10.7248C101.281 12.4267 102.254 14.4336 102.581 16.5932C103.074 19.8221 101.956 23.2628 99.5557 25.4994C98.6721 26.3214 97.6539 26.945 96.5454 27.4175C94.7516 28.1491 92.7433 28.3298 90.8489 27.9447C89.8957 27.7685 88.99 27.4012 88.1316 26.9613C87.2747 26.508 86.5154 25.8993 85.8065 25.2283L73.1717 14.3685L87.4256 0.269348H83.7774L71.5363 12.3037V0.269348H64.4264H61.8423V0.602608C63.2839 1.20692 64.3169 2.58884 64.4264 4.227V7.57589C63.2572 7.02934 62.0259 6.62054 60.7575 6.38652C57.8434 5.80146 54.7576 6.03549 51.987 7.13302C50.5943 7.66328 49.3171 8.48384 48.1982 9.45399C45.9501 11.415 44.1341 13.8678 43.3764 16.7902C43.0123 18.1943 42.9487 19.7702 43.1366 21.2262C43.3675 22.7029 43.8899 24.113 44.6033 25.4164C45.367 26.6932 46.3097 27.8544 47.4079 28.8527C47.954 29.3518 48.549 29.7977 49.141 30.2391C49.7552 30.6582 50.4034 31.0226 51.0798 31.3277C53.9569 32.6015 57.3209 32.6741 60.2543 31.5351C60.3431 31.501 60.4497 31.4047 60.389 31.3321C60.3623 31.2996 59.0037 31.778 58.8542 31.8135C58.2874 31.9483 57.7102 32.0401 57.13 32.089C55.9904 32.1853 54.8375 32.1201 53.7157 31.8994C51.3758 31.4388 49.3141 30.2864 47.5663 28.6779C46.4888 27.69 45.5668 26.545 44.8238 25.2905C44.1297 24.0093 43.625 22.6289 43.4045 21.1877C43.2269 19.7643 43.3157 18.3202 43.6428 16.9249C43.6576 16.8701 43.6709 16.8153 43.6857 16.762C43.7301 16.6021 43.7849 16.445 43.8352 16.288C44.1134 15.4675 44.4923 14.681 44.9866 13.9671C45.5165 13.1539 46.1973 12.4474 46.9491 11.8387C47.6876 11.2092 48.5519 10.7426 49.4399 10.3649C53.1281 8.79636 57.3328 9.86131 60.1803 12.5541L64.4249 16.2021C64.4249 16.2021 64.4249 27.53 64.4116 27.53C64.3154 29.1697 63.2824 30.5501 61.8409 31.1544V31.4877H64.4249H71.5349V22.3134L77.4075 27.3597L77.3957 27.3493C79.5387 29.4303 82.2989 30.8508 85.2249 31.3914C88.139 31.9764 91.2248 31.7424 93.9953 30.6464C96.8517 29.5592 98.9711 27.4352 100.777 25.0417C102.263 23.0732 103.007 20.533 102.963 18.0417Z" fill="#54C9CC"/>
</svg>
